# xmcd
#
# Track frame offsets:
#       150
#       9787
#       30007
#       43744
#       55896
#       70623
#       90371
#       103497
#       113453
#       124602
#       147759
#       165525
#       174988
#       195876
#       214586
#       237767
#
# Disc length: 3358 seconds
#
#
# Revision: 0
# Processed by: cddbd v1.4PL0 Copyright (c) Steve Scherf et al.
# Submitted via: Visual Ripper tool of Visual MP3 v4.18
#
DISCID=b70d1c10
DTITLE=Grzegorz Turnau - Turnau w Trojce
DYEAR=1900
DGENRE=Blues
TTITLE0=Powitanie
TTITLE1=Krotka bajka
TTITLE2=Sowa
TTITLE3=Wielki odkrywco wyobrazni
TTITLE4=Tak samo
TTITLE5=Bylem w Nowym Jorku
TTITLE6=Zycia modele
TTITLE7=Rzezbione zmierzchem
TTITLE8=Rozmowa z kobieta bez twarzy
TTITLE9=Naprawde nie dzieje sie nic
TTITLE10=Pasjans A.D. 199...
TTITLE11=Dobra rada
TTITLE12=Nie przenoscie nam stolicy do Krakowa
TTITLE13=Cichosza
TTITLE14=Kawalek Cienia
TTITLE15=Pejzaz horyzontalny
EXTD=
EXTT0=
EXTT1=
EXTT2=
EXTT3=
EXTT4=
EXTT5=
EXTT6=
EXTT7=
EXTT8=
EXTT9=
EXTT10=
EXTT11=
EXTT12=
EXTT13=
EXTT14=
EXTT15=
PLAYORDER=
